<svg width="119" height="33" viewBox="0 0 119 33" fill="none" xmlns="http://www.w3.org/2000/svg">
<g clip-path="url(#clip0_449_3643)">
<path d="M73.3996 12.6149C71.4367 12.2005 69.4548 11.8622 67.4539 11.8622C61.4891 11.8622 57.0775 16.4331 56.9457 22.3778C56.8721 25.6499 58.423 27.9638 61.8821 27.9638C63.5838 27.9638 64.7986 27.3809 66.1452 26.3088L65.8828 27.6445H69.8467L73.3996 12.6149ZM53.6184 5.93652H49.1688L41.0879 21.1169L40.4336 22.7719V21.1169L39.6142 5.93652H35.6504L36.978 27.6445H42.1009C46.0089 20.2834 49.7103 13.2916 53.6196 5.93652H53.6184ZM56.0504 11.0156C55.4823 11.0228 54.9285 10.8375 54.4793 10.4897C54.0126 10.1501 53.7668 9.60517 53.7668 8.89044C53.7604 8.50651 53.8438 8.12639 54.0102 7.78034C54.1646 7.44301 54.38 7.1371 54.6456 6.87802C54.9123 6.62428 55.2224 6.42041 55.5611 6.27608C55.9088 6.12398 56.2848 6.0471 56.6643 6.0505C57.2324 6.04329 57.7861 6.22869 58.2353 6.57646C58.702 6.93264 58.9478 7.46097 58.9478 8.1757C58.9448 8.55864 58.8619 8.93673 58.7044 9.28579C58.5502 9.62321 58.3348 9.92915 58.0691 10.1881C57.802 10.4415 57.492 10.6453 57.1535 10.7901C56.8087 10.9511 56.4307 11.0283 56.0504 11.0156ZM54.0316 27.6445H49.8754L53.3939 12.8227H57.5632L54.0316 27.6445ZM68.709 15.4928L67.4503 20.5897C66.986 22.5084 65.4161 24.5766 63.2656 24.5766C61.5639 24.5766 60.9476 23.2789 60.9844 21.7556C61.0592 18.5761 63.0411 15.285 66.5371 15.285C67.2634 15.3166 67.9876 15.3859 68.7067 15.4928H68.709Z" fill="#52CBCA"/>
<path d="M83.5519 16.7155C86.3377 16.1694 88.0762 13.6678 88.132 11.0345C88.2068 7.55459 84.2062 7.40381 81.4951 7.40381H76.2226L71.3242 27.7571H77.5693C82.4119 27.7571 86.7866 25.9762 86.8982 20.5148C86.954 18.4264 85.7582 17.0159 83.5519 16.7155ZM82.6173 21.0787C82.5615 24.0469 80.1485 24.5218 77.6441 24.5218H76.0172L77.4564 18.5582H78.8969C80.6164 18.5771 82.6731 19.0473 82.6173 21.0787ZM83.9069 12.3131C83.8701 14.4395 81.5889 15.5116 79.626 15.5116H78.1856L79.3826 10.6439H81.2339C82.4297 10.6391 83.9259 10.8469 83.9069 12.3131Z" fill="#FFB900"/>
<path d="M119 8.94642C108.361 5.9189 100.864 10.8045 100.658 20.3833C100.566 25.1989 103.893 28.2086 108.866 28.2086C111.034 28.2086 113.022 27.7942 115.055 27.0213L115.99 23.2031C114.045 24.1078 111.913 24.9329 109.725 24.9329C106.229 24.9329 104.602 22.8267 104.471 20.2124C104.172 14.8317 109.669 9.13282 118.157 12.5747L119 8.94642Z" fill="#FFB900"/>
<path d="M103.164 10.6961L103.949 7.40381H89.9641L89.1602 10.6961H94.1156L89.9641 27.7571H94.1524L98.3217 10.6961H103.164Z" fill="#FFB900"/>
<path d="M25.6111 7.36104L25.5089 7.48689L25.3973 7.36816C23.3563 5.20949 20.6271 3.82879 17.6786 3.46325L17.5527 3.44781V0L17.7107 0.0166217C21.892 0.44038 25.746 2.46874 28.4622 5.67512L28.6427 5.88764L28.3649 5.9102C27.8314 5.95244 27.3121 6.10286 26.8386 6.3523C26.3652 6.60173 25.9475 6.94495 25.6111 7.36104Z" fill="#52CBCA"/>
<path d="M31.5999 12.4105L31.7816 12.2051L31.8458 12.4722C32.127 13.6533 32.2653 14.8639 32.2578 16.0779C32.2516 18.5705 31.667 21.0277 30.5502 23.2561L30.4754 23.4033L27.6396 21.4218L27.6907 21.3126C28.4519 19.6728 28.8431 17.8857 28.8366 16.0779C28.8379 15.3509 28.7759 14.6251 28.6514 13.9088L28.6229 13.7497L28.7844 13.7414C29.3188 13.7185 29.8431 13.5889 30.3267 13.3604C30.8102 13.1318 31.2431 12.8088 31.5999 12.4105Z" fill="#52CBCA"/>
<path d="M3.42022 16.0779C3.41354 17.8858 3.80519 19.6731 4.56734 21.3126L4.6184 21.4218L1.78147 23.4021L1.70666 23.2573C0.57179 21.035 -0.0133891 18.573 0.000232472 16.0779C0.00290677 14.9609 0.119488 13.847 0.348168 12.7536L0.399231 12.5078L0.58448 12.6776C1.32085 13.3506 2.28005 13.7278 3.27772 13.7366H3.63397L3.60428 13.904C3.47992 14.6219 3.41834 15.3493 3.42022 16.0779Z" fill="#52CBCA"/>
<path d="M6.7066 7.55575L6.58785 7.68872L6.48454 7.54387C5.86446 6.67917 4.92986 6.09217 3.88155 5.90901L3.63574 5.86746L3.8008 5.67631C6.50217 2.45313 10.3623 0.420472 14.5488 0.0166217L14.7056 0V3.45019L14.5785 3.46562C11.5475 3.83654 8.75218 5.28892 6.7066 7.55575Z" fill="#52CBCA"/>
<path d="M6.09553 23.876L6.17866 23.9793C7.80124 26.0153 10.0077 27.5067 12.5021 28.2534L12.6612 28.3009L12.5911 28.4517C12.3358 28.9912 12.2012 29.5799 12.1969 30.1768C12.197 30.641 12.2773 31.1017 12.4344 31.5386L12.5246 31.7891L12.2658 31.725C8.73338 30.8587 5.59991 28.8188 3.37855 25.9394L3.28711 25.8207L6.09553 23.876Z" fill="#52CBCA"/>
<path d="M19.667 28.4551L19.5957 28.3043L19.756 28.2568C22.2499 27.5097 24.4559 26.0184 26.0782 23.9827L26.1625 23.8794L28.9662 25.8277L28.8736 25.9464C26.6438 28.8161 23.5144 30.8536 19.9876 31.732L19.7287 31.7961L19.819 31.5456C19.976 31.1087 20.0564 30.648 20.0565 30.1838C20.0535 29.5861 19.9206 28.9963 19.667 28.4551Z" fill="#52CBCA"/>
<path d="M28.6662 12.6311C28.1081 12.6314 27.5625 12.4661 27.0983 12.1563C26.6342 11.8465 26.2723 11.406 26.0586 10.8905C25.8449 10.3751 25.7888 9.80787 25.8976 9.26059C26.0063 8.7133 26.2749 8.21055 26.6695 7.81591C27.064 7.42128 27.5668 7.15249 28.1141 7.04355C28.6614 6.93461 29.2288 6.9904 29.7444 7.20388C30.2601 7.41735 30.7008 7.77892 31.0109 8.24284C31.321 8.70677 31.4865 9.25222 31.4865 9.8102C31.4865 10.5582 31.1894 11.2755 30.6605 11.8045C30.1316 12.3335 29.4143 12.6308 28.6662 12.6311ZM3.27754 12.6311C2.71951 12.6311 2.174 12.4657 1.71001 12.1557C1.24602 11.8458 0.88438 11.4052 0.670829 10.8897C0.457277 10.3743 0.401402 9.80707 0.51027 9.25986C0.619138 8.71265 0.887858 8.21001 1.28245 7.81549C1.67704 7.42098 2.17978 7.15231 2.7271 7.04346C3.27441 6.93462 3.84172 6.99048 4.35728 7.20399C4.87284 7.4175 5.31349 7.77907 5.62352 8.24297C5.93355 8.70687 6.09903 9.25227 6.09903 9.8102C6.09903 10.5584 5.80177 11.2759 5.27263 11.8049C4.7435 12.3339 4.02585 12.6311 3.27754 12.6311ZM16.1286 33.0058C15.5705 33.006 15.0248 32.8407 14.5606 32.5309C14.0965 32.221 13.7346 31.7804 13.5209 31.2649C13.3072 30.7494 13.2513 30.1821 13.3601 29.6348C13.4689 29.0875 13.7377 28.5847 14.1323 28.1901C14.527 27.7955 15.0298 27.5268 15.5773 27.418C16.1247 27.3092 16.6921 27.3652 17.2077 27.5789C17.7233 27.7925 18.164 28.1543 18.4739 28.6183C18.7838 29.0824 18.9491 29.628 18.9489 30.186C18.9489 30.9339 18.6518 31.6511 18.1229 32.1799C17.5939 32.7087 16.8766 33.0058 16.1286 33.0058Z" fill="#52CBCA"/>
<path d="M20.079 13.3828C19.5766 15.4202 16.4428 14.3861 15.4085 14.1356L16.317 10.5666C17.3204 10.7851 20.5801 11.2873 20.079 13.3864V13.3828ZM19.5137 19.1802C18.9496 21.436 15.1888 20.2143 13.9669 19.9009L14.9692 15.9521C16.1567 16.2655 20.0754 16.8615 19.5137 19.1802ZM20.016 9.27727L20.7368 6.33167L18.9496 5.85676L18.2288 8.74537C17.7538 8.61952 17.2883 8.52573 16.7872 8.39988L17.508 5.5172L15.7268 5.0791L14.9739 8.0247C14.5975 7.92972 14.1902 7.83593 13.8149 7.773L11.3331 7.14732L10.8581 9.05881L12.1738 9.37225C12.8946 9.55984 13.0205 10.03 13.0205 10.4064L12.1738 13.7592C12.2367 13.7901 12.2997 13.7901 12.3614 13.8221C12.2997 13.7901 12.2427 13.7901 12.1738 13.7592L11.0136 18.4904C10.9198 18.7101 10.7013 19.0556 10.199 18.9297C10.2311 18.9606 8.88325 18.6163 8.88325 18.6163L7.97363 20.6845L10.2987 21.252C10.7381 21.3779 11.1454 21.4717 11.5848 21.5975L10.8319 24.5763L12.6191 25.0156L13.3708 22.0688C13.8458 22.1947 14.3422 22.3205 14.8124 22.4452L14.0607 25.3599L15.842 25.798L16.5948 22.8216C19.6657 23.3855 21.954 23.1659 22.9254 20.4091C23.7091 18.1841 22.8945 16.8674 21.2629 16.053C22.4848 15.8025 23.3624 15.0189 23.6129 13.4208C23.9336 11.2208 22.2723 10.0609 20.016 9.27727Z" fill="#FFB900"/>
</g>
<defs>
<clipPath id="clip0_449_3643">
<rect width="119" height="33" fill="white"/>
</clipPath>
</defs>
</svg>
