<svg width="191" height="36" viewBox="0 0 191 36" fill="none" xmlns="http://www.w3.org/2000/svg">
<path d="M14.1587 5.3501L5.85479 31.7625C3.10056 29.5992 1.06084 26.6601 0 23.3261L5.64719 5.3501H14.1587Z" fill="url(#paint0_linear_875_1672)"/>
<path d="M20.6703 19.1787L15.5281 35.4999C12.7865 35.3196 10.1266 34.4945 7.76562 33.0919L12.1392 19.1787H20.6703Z" fill="url(#paint1_linear_875_1672)"/>
<path d="M25.764 2.91944L21.3147 17.0762H12.8145L18.0184 0.500244C20.7558 0.683201 23.4104 1.51235 25.764 2.91944Z" fill="url(#paint2_linear_875_1672)"/>
<path d="M33.5407 12.6803L27.8935 30.6563H19.3877L27.6831 4.2439C30.4375 6.40763 32.478 9.34648 33.5407 12.6803Z" fill="url(#paint3_linear_875_1672)"/>
<path d="M55.5114 9.16992H50.4102V26.6005H55.5114V9.16992Z" fill="#1E1E1E"/>
<path d="M68.4841 9.16992V18.974H68.436L62.7199 9.16992H57.6133V26.6059H62.5487V16.7324H62.5969L68.1419 26.6059H73.4196V9.16992H68.4841Z" fill="#1E1E1E"/>
<path d="M74.8311 9.16992V13.5142H79.7665V26.6059H84.8678V13.5142H89.8781V9.16992H74.8311Z" fill="#1E1E1E"/>
<path d="M158.055 25.7414L151.905 9.19678H146.708L140.243 26.606H145.328L146.179 24.0443H152.06L152.916 26.606H158.338L158.055 25.7414ZM147.36 20.5325L148.51 17.1169C148.804 16.2683 149.162 14.8807 149.162 14.8807H149.216C149.216 14.8807 149.606 16.2683 149.879 17.1169L150.975 20.5325H147.36Z" fill="#1E1E1E"/>
<path d="M185.508 9.16992V15.5583H180.139V9.16992H175.027V26.6059H180.139V19.7799H185.508V26.6059H190.614V9.16992H185.508Z" fill="#1E1E1E"/>
<path d="M173.642 21.0127C173.642 24.6632 170.38 26.6059 166.418 26.6059H159.247V22.8379H166.514C167.477 22.8379 168.653 22.4644 168.653 21.4557C168.653 20.447 167.53 20.1961 165.445 19.6785C162.632 18.974 159.231 18.0133 159.231 14.4589C159.231 10.6269 162.37 9.16992 166.145 9.16992H172.872V12.7724H165.91C164.841 12.7724 164.076 13.2687 164.076 13.9465C164.076 14.9285 165.509 15.0726 168.017 15.681C170.835 16.3588 173.648 17.4529 173.648 21.018" fill="#1E1E1E"/>
<path d="M122.089 25.7893L119.64 19.5823L119.25 18.6003C121.084 17.7731 122.111 16.3588 122.111 14.3628C122.111 10.803 119.084 9.16455 115.517 9.16455H106.85V26.6005H111.951V20.5323H113.924C114.103 20.5206 114.282 20.562 114.438 20.6512C114.594 20.7405 114.72 20.8736 114.801 21.034L116.758 26.6058H122.405L122.089 25.7893ZM114.689 16.8818H111.951V13.1459H114.758C116.223 13.1459 116.956 13.8771 116.956 15.0192C116.956 16.1613 116.154 16.8712 114.689 16.8712" fill="#1E1E1E"/>
<path d="M96.3913 22.2349V19.513H103.503V15.681H96.3913V13.3168H104.893V9.16992H91.29V26.6059H105.139V22.2349H96.3913Z" fill="#1E1E1E"/>
<path d="M134.201 9.16992V15.5583H128.827V9.16992H123.726V26.6059H128.827V19.7799H134.201V26.6059H139.302V9.16992H134.201Z" fill="#1E1E1E"/>
<defs>
<linearGradient id="paint0_linear_875_1672" x1="7.07933" y1="5.3501" x2="-0.172354" y2="26.5346" gradientUnits="userSpaceOnUse">
<stop stop-color="#FF5C87"/>
<stop offset="1" stop-color="#7250E6"/>
</linearGradient>
<linearGradient id="paint1_linear_875_1672" x1="14.218" y1="19.1787" x2="7.67957" y2="37.6914" gradientUnits="userSpaceOnUse">
<stop stop-color="#FF5C87"/>
<stop offset="1" stop-color="#7250E6"/>
</linearGradient>
<linearGradient id="paint2_linear_875_1672" x1="19.2892" y1="0.500244" x2="14.2906" y2="15.7901" gradientUnits="userSpaceOnUse">
<stop stop-color="#7250E6"/>
<stop offset="1" stop-color="#FF5C87"/>
</linearGradient>
<linearGradient id="paint3_linear_875_1672" x1="33.7131" y1="8.9717" x2="26.4642" y2="30.6563" gradientUnits="userSpaceOnUse">
<stop stop-color="#FF5C87"/>
<stop offset="1" stop-color="#7250E6"/>
</linearGradient>
</defs>
</svg>
