<svg width="37" height="36" viewBox="0 0 37 36" fill="none" xmlns="http://www.w3.org/2000/svg">
<path d="M30.6143 0H6.61426C3.30055 0 0.614258 2.68629 0.614258 6V30C0.614258 33.3137 3.30055 36 6.61426 36H30.6143C33.928 36 36.6143 33.3137 36.6143 30V6C36.6143 2.68629 33.928 0 30.6143 0Z" fill="#289FD9"/>
<path d="M15.2496 18.6469L23.6777 26.0625C23.7751 26.1488 23.8933 26.2082 24.0206 26.2349C24.1479 26.2617 24.28 26.2549 24.4039 26.2152C24.5277 26.1754 24.6391 26.1042 24.7272 26.0084C24.8152 25.9126 24.8768 25.7956 24.9059 25.6688L28.4309 10.275C28.4604 10.1425 28.4534 10.0043 28.4106 9.87544C28.3678 9.74654 28.2908 9.63168 28.1878 9.54312C28.0848 9.45457 27.9597 9.39565 27.8258 9.37265C27.692 9.34965 27.5544 9.36343 27.4277 9.41253L10.1215 16.2094C9.42774 16.4813 9.52149 17.4938 10.2527 17.6438L15.2496 18.6469Z" stroke="white" stroke-width="2" stroke-linecap="round" stroke-linejoin="round"/>
<path d="M15.25 18.647L28.0094 9.4314" stroke="white" stroke-width="2" stroke-linecap="round" stroke-linejoin="round"/>
<path d="M19.4594 22.3499L16.5344 25.2749C16.43 25.3808 16.2965 25.4534 16.1508 25.4833C16.0052 25.5132 15.8539 25.4991 15.7162 25.4428C15.5786 25.3866 15.4607 25.2906 15.3777 25.1673C15.2947 25.0439 15.2502 24.8986 15.25 24.7499V18.6467" stroke="white" stroke-width="2" stroke-linecap="round" stroke-linejoin="round"/>
</svg>
