<svg width="37" height="36" viewBox="0 0 37 36" fill="none" xmlns="http://www.w3.org/2000/svg">
<path d="M30.6143 0H6.61426C3.30055 0 0.614258 2.68629 0.614258 6V30C0.614258 33.3137 3.30055 36 6.61426 36H30.6143C33.928 36 36.6143 33.3137 36.6143 30V6C36.6143 2.68629 33.928 0 30.6143 0Z" fill="#1BD741"/>
<path d="M11.2565 22.5938C10.1398 20.7098 9.74924 18.483 10.158 16.3315C10.5668 14.1799 11.7469 12.2515 13.4768 10.9084C15.2066 9.56523 17.3672 8.89967 19.553 9.03666C21.7388 9.17364 23.7994 10.1037 25.348 11.6523C26.8966 13.201 27.8267 15.2616 27.9637 17.4473C28.1007 19.6331 27.4351 21.7937 26.0919 23.5236C24.7488 25.2534 22.8204 26.4335 20.6689 26.8423C18.5173 27.2511 16.2905 26.8605 14.4065 25.7438L11.294 26.6251C11.1665 26.6624 11.0313 26.6647 10.9026 26.6317C10.7738 26.5988 10.6563 26.5319 10.5624 26.4379C10.4684 26.344 10.4015 26.2265 10.3686 26.0978C10.3357 25.969 10.338 25.8338 10.3753 25.7063L11.2565 22.5938Z" stroke="white" stroke-width="2" stroke-linecap="round" stroke-linejoin="round"/>
<path d="M21.2594 23.25C20.2726 23.2525 19.295 23.0599 18.3828 22.6834C17.4706 22.3069 16.6418 21.7539 15.944 21.0561C15.2462 20.3583 14.6931 19.5295 14.3166 18.6173C13.9401 17.7051 13.7476 16.7275 13.75 15.7406C13.7525 15.0461 14.0302 14.3808 14.5222 13.8905C15.0142 13.4003 15.6805 13.125 16.375 13.125C16.4896 13.1241 16.6023 13.1541 16.7013 13.2118C16.8003 13.2696 16.8819 13.3529 16.9375 13.4531L18.0344 15.3656C18.0996 15.4819 18.1331 15.6133 18.1315 15.7466C18.1298 15.8799 18.0931 16.0104 18.025 16.125L17.1438 17.5969C17.5952 18.601 18.399 19.4049 19.4031 19.8563L20.875 18.975C20.9896 18.9069 21.1202 18.8702 21.2535 18.8686C21.3868 18.8669 21.5181 18.9004 21.6344 18.9656L23.5469 20.0625C23.6471 20.1181 23.7305 20.1997 23.7882 20.2987C23.8459 20.3977 23.8759 20.5104 23.875 20.625C23.8726 21.3188 23.5965 21.9837 23.1068 22.4752C22.6171 22.9666 21.9532 23.2451 21.2594 23.25Z" stroke="white" stroke-width="2" stroke-linecap="round" stroke-linejoin="round"/>
</svg>
